<svg width="30" height="30" viewBox="0 0 30 30" fill="none" xmlns="http://www.w3.org/2000/svg">
<circle cx="15" cy="15" r="14.5" stroke="#2F8CFF"/>
<path d="M9.65039 6.95312L9.67383 5.99219H15.8145V6.95312H14.7363C14.291 6.95312 14.0332 6.98438 13.9629 7.04688C13.8926 7.10547 13.8379 7.16797 13.7988 7.23438C13.7363 7.33984 13.7051 7.54102 13.7051 7.83789V19.9609C13.7051 20.4648 13.8047 20.7578 14.0039 20.8398C14.1094 20.8789 14.2734 20.8984 14.4961 20.8984C18.5391 20.875 20.668 20.7559 20.8828 20.541C21.0039 20.4199 21.0938 20.2188 21.1523 19.9375C21.2109 19.6562 21.2578 19.4219 21.293 19.2344C21.332 19.0469 21.3672 18.8574 21.3984 18.666C21.4336 18.4707 21.4766 18.2305 21.5273 17.9453L22.3652 17.9922L21.5742 22H9.98438L9.96094 21.0625H10.6348C11.1816 21.0625 11.4902 21.0293 11.5605 20.9629C11.6348 20.8926 11.6797 20.8418 11.6953 20.8105C11.7109 20.7793 11.7246 20.7246 11.7363 20.6465C11.752 20.541 11.7598 20.377 11.7598 20.1543V7.74414C11.7598 7.40039 11.6738 7.18359 11.502 7.09375C11.3301 7 10.9922 6.95312 10.4883 6.95312H9.65039Z" fill="#2F8CFF"/>
</svg>
